<svg height="512" viewBox="0 0 128 128" width="512" xmlns="http://www.w3.org/2000/svg" xmlns:xlink="http://www.w3.org/1999/xlink"><linearGradient id="a" gradientUnits="userSpaceOnUse" x1="94.663" x2="16.249" y1="114.747" y2="36.333"><stop offset="0" stop-color="#7c84e8"/><stop offset="1" stop-color="#ff637b"/></linearGradient><path d="m120.614 53.133-42.752-42.751a25.217 25.217 0 0 0 -35.662 35.662l42.752 42.756a25.217 25.217 0 0 0 35.662-35.663zm-2.474 33.188a21.747 21.747 0 0 1 -30.713 0l-20.139-20.138 8.385-8.383a1.75 1.75 0 0 0 -2.473-2.477l-8.385 8.385-20.14-20.139a21.717 21.717 0 0 1 30.713-30.713l20.139 20.139-3.827 3.828a1.75 1.75 0 0 0 2.473 2.477l3.827-3.831 20.14 20.138a21.746 21.746 0 0 1 0 30.714zm-48.626-67.591a1.75 1.75 0 1 1 -2.475 2.475 9.923 9.923 0 0 0 -14.015 0 1.75 1.75 0 1 1 -2.474-2.475 13.425 13.425 0 0 1 18.964 0zm17.286 25.47a1.751 1.751 0 0 1 0 2.475l-3.75 3.75a1.75 1.75 0 1 1 -2.475-2.475l3.75-3.75a1.751 1.751 0 0 1 2.475 0zm-27.613 51.21a29.594 29.594 0 1 1 -46.14-24.538 1.75 1.75 0 1 1 1.959 2.9 26.1 26.1 0 1 0 14.588-4.456 1.75 1.75 0 1 1 0-3.5 29.627 29.627 0 0 1 29.593 29.594zm-42.643 13.05a1.749 1.749 0 0 1 0-2.475l23.625-23.625a1.75 1.75 0 0 1 2.475 2.475l-23.625 23.625a1.749 1.749 0 0 1 -2.475 0z" fill="url(#a)"/></svg>