<svg height="512" viewBox="0 0 128 128" width="512" xmlns="http://www.w3.org/2000/svg" xmlns:xlink="http://www.w3.org/1999/xlink"><linearGradient id="linear-gradient" gradientUnits="userSpaceOnUse" x1="112.444" x2="2.22" y1="125.769" y2="15.545"><stop offset="0" stop-color="#4db6ac"/><stop offset="1" stop-color="#ba68c8"/></linearGradient><path d="m16.738 50.333v-3.666a1.75 1.75 0 0 1 3.5 0v3.666a1.75 1.75 0 0 1 -3.5 0zm94.5 75.917v-14.25a1.75 1.75 0 0 0 -3.5 0v12.5h-87.5v-63.5a1.75 1.75 0 0 0 -3.5 0v65.25a1.75 1.75 0 0 0 1.75 1.75h91a1.75 1.75 0 0 0 1.75-1.75zm0-24a1.75 1.75 0 0 1 -3.5 0v-72.124h-24.875a1.75 1.75 0 0 1 -1.75-1.75v-24.876h-60.875v32.5a1.75 1.75 0 0 1 -3.5 0v-34.249a1.75 1.75 0 0 1 1.75-1.751h64.375a1.743 1.743 0 0 1 .768.186c.034.017.066.034.1.052a1.74 1.74 0 0 1 .369.276l26.625 26.625a1.739 1.739 0 0 1 .273.369c.02.034.038.068.055.1a1.742 1.742 0 0 1 .15.422v.009a1.748 1.748 0 0 1 .033.334zm-5.975-75.624-20.65-20.65v20.65zm-20.913 24.801a20.361 20.361 0 1 1 -20.362-20.362 20.384 20.384 0 0 1 20.362 20.362zm-3.5 0a16.861 16.861 0 1 0 -16.862 16.861 16.88 16.88 0 0 0 16.862-16.861zm-5.924-5.677a1.75 1.75 0 0 1 1.75 1.75v7.125a1.75 1.75 0 0 1 -1.75 1.75h-5.626v5.625a1.75 1.75 0 0 1 -1.75 1.75h-7.124a1.75 1.75 0 0 1 -1.75-1.75v-5.625h-5.625a1.75 1.75 0 0 1 -1.75-1.75v-7.125a1.75 1.75 0 0 1 1.75-1.75h5.625v-5.625a1.75 1.75 0 0 1 1.75-1.75h7.125a1.75 1.75 0 0 1 1.75 1.75v5.625zm-1.75 3.5h-5.625a1.75 1.75 0 0 1 -1.751-1.75v-5.625h-3.624v5.625a1.75 1.75 0 0 1 -1.75 1.75h-5.626v3.625h5.625a1.75 1.75 0 0 1 1.75 1.75v5.625h3.625v-5.625a1.75 1.75 0 0 1 1.75-1.75h5.625zm23.906 39.5h-49.641a1.75 1.75 0 0 0 0 3.5h49.641a1.75 1.75 0 0 0 0-3.5zm-66.187 3.5h8.594a1.75 1.75 0 0 0 0-3.5h-8.594a1.75 1.75 0 0 0 0 3.5zm66.187-11.667h-49.641a1.75 1.75 0 0 0 0 3.5h49.641a1.75 1.75 0 0 0 0-3.5zm-66.187 3.5h8.594a1.75 1.75 0 0 0 0-3.5h-8.594a1.75 1.75 0 0 0 0 3.5zm66.187 12.834h-49.641a1.75 1.75 0 0 0 0 3.5h49.641a1.75 1.75 0 0 0 0-3.5zm-66.187 3.5h8.594a1.75 1.75 0 0 0 0-3.5h-8.594a1.75 1.75 0 0 0 0 3.5zm66.188 4.666h-49.642a1.75 1.75 0 0 0 0 3.5h49.641a1.75 1.75 0 0 0 0-3.5zm-66.187 3.5h8.594a1.75 1.75 0 1 0 0-3.5h-8.595a1.75 1.75 0 0 0 0 3.5zm66.188 4.667h-49.643a1.75 1.75 0 0 0 0 3.5h49.641a1.75 1.75 0 0 0 0-3.5zm-66.187 3.5h8.594a1.75 1.75 0 0 0 0-3.5h-8.596a1.75 1.75 0 0 0 0 3.5z" fill="url(#linear-gradient)"/></svg>